# This file uses centimeters as units for non-parametric coordinates.

mtllib rail_03.mtl
g default
v 42.366302 1.602945 31.894701
v 59.768066 1.602945 31.894701
v 42.366302 2.602945 31.894701
v 59.768066 2.602945 31.894701
v 42.366302 2.602945 30.894701
v 59.768066 2.602945 30.894701
v 42.366302 1.602945 30.894701
v 59.768066 1.602945 30.894701
v 42.367016 1.602945 31.894701
v 42.367016 1.602945 30.894701
v 42.367016 2.602945 30.894701
v 42.367016 2.602945 31.894701
v 42.366287 1.602945 46.190014
v 59.768066 1.602945 46.190014
v 42.366287 2.602945 46.190014
v 59.768066 2.602945 46.190014
v 42.366287 2.602945 45.190014
v 59.768066 2.602945 45.190014
v 42.366287 1.602945 45.190014
v 59.768066 1.602945 45.190014
v 42.367016 1.602945 46.190014
v 42.367016 1.602945 45.190014
v 42.367016 2.602945 45.190014
v 42.367016 2.602945 46.190014
v 51.067543 1.602945 31.894701
v 51.067543 2.602945 31.894701
v 51.067543 2.602945 30.894701
v 51.067543 1.602945 30.894701
v 51.067543 1.602945 46.190014
v 51.067543 2.602945 46.190014
v 51.067543 2.602945 45.190014
v 51.067543 1.602945 45.190014
v 42.367016 0.602945 47.971714
v 44.252277 0.602945 47.971714
v 42.367016 1.602945 47.971714
v 44.252277 1.602945 47.971714
v 42.367016 1.602945 29.205233
v 44.252277 1.602945 29.205233
v 42.367016 0.602945 29.205233
v 44.252277 0.602945 29.205233
v 42.367016 1.602945 38.588474
v 44.252277 1.602945 38.588474
v 44.252277 0.602945 38.588474
v 42.367016 0.602945 38.588474
v 43.309647 0.602945 47.971714
v 43.309647 0.602945 38.588474
v 43.309647 0.602945 29.205233
v 43.309647 1.602945 29.205233
v 43.309647 1.602945 38.588474
v 43.309647 1.602945 47.971714
v 46.096619 0.602945 47.971714
v 47.981880 0.602945 47.971714
v 46.096619 1.602945 47.971714
v 47.981880 1.602945 47.971714
v 46.096619 1.602945 29.205233
v 47.981880 1.602945 29.205233
v 46.096619 0.602945 29.205233
v 47.981880 0.602945 29.205233
v 46.096619 1.602945 38.588474
v 47.981880 1.602945 38.588474
v 47.981880 0.602945 38.588474
v 46.096619 0.602945 38.588474
v 47.039246 0.602945 47.971714
v 47.039246 0.602945 38.588474
v 47.039246 0.602945 29.205233
v 47.039246 1.602945 29.205233
v 47.039246 1.602945 38.588474
v 47.039246 1.602945 47.971714
v 50.124912 0.602945 47.971714
v 52.010174 0.602945 47.971714
v 50.124912 1.602945 47.971714
v 52.010174 1.602945 47.971714
v 50.124912 1.602945 29.205233
v 52.010174 1.602945 29.205233
v 50.124912 0.602945 29.205233
v 52.010174 0.602945 29.205233
v 50.124912 1.602945 38.588474
v 52.010174 1.602945 38.588474
v 52.010174 0.602945 38.588474
v 50.124912 0.602945 38.588474
v 51.067543 0.602945 47.971714
v 51.067543 0.602945 38.588474
v 51.067543 0.602945 29.205233
v 51.067543 1.602945 29.205233
v 51.067543 1.602945 38.588474
v 51.067543 1.602945 47.971714
v 54.005264 0.602945 47.971714
v 55.890526 0.602945 47.971714
v 54.005264 1.602945 47.971714
v 55.890526 1.602945 47.971714
v 54.005264 1.602945 29.205233
v 55.890526 1.602945 29.205233
v 54.005264 0.602945 29.205233
v 55.890526 0.602945 29.205233
v 54.005264 1.602945 38.588474
v 55.890526 1.602945 38.588474
v 55.890526 0.602945 38.588474
v 54.005264 0.602945 38.588474
v 54.947895 0.602945 47.971714
v 54.947895 0.602945 38.588474
v 54.947895 0.602945 29.205233
v 54.947895 1.602945 29.205233
v 54.947895 1.602945 38.588474
v 54.947895 1.602945 47.971714
v 57.882805 0.602945 47.971714
v 59.768066 0.602945 47.971714
v 57.882805 1.602945 47.971714
v 59.768066 1.602945 47.971714
v 57.882805 1.602945 29.205233
v 59.768066 1.602945 29.205233
v 57.882805 0.602945 29.205233
v 59.768066 0.602945 29.205233
v 57.882805 1.602945 38.588474
v 59.768066 1.602945 38.588474
v 59.768066 0.602945 38.588474
v 57.882805 0.602945 38.588474
v 58.825436 0.602945 47.971714
v 58.825436 0.602945 38.588474
v 58.825436 0.602945 29.205233
v 58.825436 1.602945 29.205233
v 58.825436 1.602945 38.588474
v 58.825436 1.602945 47.971714
vt 0.771274 0.522596
vt 0.808024 0.522596
vt 0.807917 0.478607
vt 0.781347 0.478607
vt 0.868847 0.408714
vt 0.808024 0.559346
vt 0.771274 0.559346
vt 0.859541 0.558365
vt 0.859541 0.522596
vt 0.781347 0.247430
vt 0.807917 0.247430
vt 0.846293 0.408714
vt 0.846293 0.212483
vt 0.728852 0.477728
vt 0.702498 0.477728
vt 0.868847 0.212483
vt 0.878370 0.016253
vt 0.895310 0.522596
vt 0.895310 0.558365
vt 0.816636 0.522596
vt 0.853386 0.522596
vt 0.853386 0.559346
vt 0.816636 0.559346
vt 0.901908 0.558365
vt 0.901908 0.522596
vt 0.702498 0.248434
vt 0.900756 0.016253
vt 0.728852 0.248434
vt 0.770132 0.478607
vt 0.743561 0.478607
vt 0.743561 0.247430
vt 0.900756 0.211026
vt 0.878370 0.211026
vt 0.770132 0.247430
vt 0.684244 0.477728
vt 0.837590 0.408713
vt 0.815036 0.408713
vt 0.657890 0.477728
vt 0.815036 0.212483
vt 0.837590 0.212483
vt 0.908808 0.016253
vt 0.931194 0.016253
vt 0.931194 0.211025
vt 0.908808 0.211025
vt 0.846293 0.016253
vt 0.868847 0.016253
vt 0.900756 0.405798
vt 0.878370 0.405798
vt 0.815036 0.016253
vt 0.837590 0.016253
vt 0.931194 0.405797
vt 0.908808 0.405797
vt 0.657890 0.248434
vt 0.684244 0.248434
vt 0.781347 0.016253
vt 0.807917 0.016253
vt 0.702498 0.019140
vt 0.728852 0.019140
vt 0.743561 0.016253
vt 0.770132 0.016253
vt 0.657890 0.019140
vt 0.684244 0.019140
vt 0.937677 0.522596
vt 0.937677 0.558365
vt 0.261233 0.926888
vt 0.261233 0.902705
vt 0.284028 0.902705
vt 0.284028 0.926888
vt 0.318167 0.895934
vt 0.318167 0.702540
vt 0.337596 0.702540
vt 0.337596 0.895934
vt 0.321594 0.925773
vt 0.321594 0.902705
vt 0.343338 0.902705
vt 0.343338 0.925773
vt 0.261618 0.702625
vt 0.261618 0.509642
vt 0.281005 0.509642
vt 0.281005 0.702625
vt 0.420449 0.749602
vt 0.394876 0.749602
vt 0.394876 0.509642
vt 0.420449 0.509642
vt 0.379493 0.509642
vt 0.379493 0.750842
vt 0.353788 0.750842
vt 0.353788 0.509642
vt 0.318167 0.509146
vt 0.337596 0.509146
vt 0.394876 0.989561
vt 0.420449 0.989561
vt 0.261618 0.895608
vt 0.281005 0.895608
vt 0.379493 0.992042
vt 0.353788 0.992042
vt 0.242231 0.702625
vt 0.242231 0.895608
vt 0.242231 0.509642
vt 0.299849 0.902705
vt 0.299849 0.925773
vt 0.298739 0.702540
vt 0.298739 0.895934
vt 0.298739 0.509146
vt 0.238437 0.902705
vt 0.238437 0.926888
vt 0.478836 0.926888
vt 0.478836 0.902705
vt 0.501632 0.902705
vt 0.501632 0.926888
vt 0.535771 0.895934
vt 0.535771 0.702540
vt 0.555199 0.702540
vt 0.555199 0.895934
vt 0.539197 0.925773
vt 0.539197 0.902705
vt 0.560941 0.902705
vt 0.560941 0.925773
vt 0.479222 0.702625
vt 0.479222 0.509642
vt 0.498609 0.509642
vt 0.498609 0.702625
vt 0.638053 0.749602
vt 0.612480 0.749602
vt 0.612480 0.509642
vt 0.638053 0.509642
vt 0.597097 0.509642
vt 0.597097 0.750842
vt 0.571391 0.750842
vt 0.571391 0.509642
vt 0.535771 0.509146
vt 0.555199 0.509146
vt 0.612480 0.989561
vt 0.638053 0.989561
vt 0.479222 0.895608
vt 0.498609 0.895608
vt 0.597097 0.992042
vt 0.571391 0.992042
vt 0.459835 0.702625
vt 0.459835 0.895608
vt 0.459835 0.509642
vt 0.517453 0.902705
vt 0.517453 0.925773
vt 0.516343 0.702540
vt 0.516343 0.895934
vt 0.516343 0.509146
vt 0.456041 0.902705
vt 0.456041 0.926888
vt 0.043087 0.926888
vt 0.043087 0.902705
vt 0.065882 0.902705
vt 0.065882 0.926888
vt 0.100021 0.895934
vt 0.100021 0.702540
vt 0.119449 0.702540
vt 0.119449 0.895934
vt 0.103447 0.925773
vt 0.103447 0.902705
vt 0.125192 0.902705
vt 0.125192 0.925773
vt 0.043472 0.702625
vt 0.043472 0.509642
vt 0.062859 0.509642
vt 0.062859 0.702625
vt 0.202303 0.749602
vt 0.176730 0.749602
vt 0.176730 0.509642
vt 0.202303 0.509642
vt 0.161347 0.509642
vt 0.161347 0.750842
vt 0.135642 0.750842
vt 0.135642 0.509642
vt 0.100021 0.509146
vt 0.119449 0.509146
vt 0.176730 0.989561
vt 0.202303 0.989561
vt 0.043472 0.895608
vt 0.062859 0.895608
vt 0.161347 0.992042
vt 0.135642 0.992042
vt 0.024085 0.702625
vt 0.024085 0.895608
vt 0.024085 0.509642
vt 0.081703 0.902705
vt 0.081703 0.925773
vt 0.080593 0.702540
vt 0.080593 0.895934
vt 0.080593 0.509146
vt 0.020291 0.902705
vt 0.020291 0.926888
vt 0.039859 0.424216
vt 0.039859 0.400033
vt 0.062654 0.400033
vt 0.062654 0.424216
vt 0.096793 0.393261
vt 0.096793 0.199867
vt 0.116221 0.199867
vt 0.116221 0.393261
vt 0.100219 0.423101
vt 0.100219 0.400033
vt 0.121963 0.400033
vt 0.121963 0.423101
vt 0.040244 0.199952
vt 0.040244 0.006969
vt 0.059631 0.006969
vt 0.059631 0.199952
vt 0.199075 0.246929
vt 0.173502 0.246929
vt 0.173502 0.006969
vt 0.199075 0.006969
vt 0.158119 0.006969
vt 0.158119 0.248170
vt 0.132413 0.248170
vt 0.132413 0.006969
vt 0.096793 0.006473
vt 0.116221 0.006473
vt 0.173502 0.486889
vt 0.199075 0.486889
vt 0.040244 0.392935
vt 0.059631 0.392935
vt 0.158119 0.489370
vt 0.132413 0.489370
vt 0.020857 0.199952
vt 0.020857 0.392935
vt 0.020857 0.006969
vt 0.078475 0.400033
vt 0.078475 0.423101
vt 0.077365 0.199867
vt 0.077365 0.393261
vt 0.077365 0.006473
vt 0.017063 0.400033
vt 0.017063 0.424216
vt 0.258388 0.424216
vt 0.258388 0.400033
vt 0.281184 0.400033
vt 0.281184 0.424216
vt 0.315323 0.393261
vt 0.315323 0.199867
vt 0.334751 0.199867
vt 0.334751 0.393261
vt 0.318749 0.423101
vt 0.318749 0.400033
vt 0.340493 0.400033
vt 0.340493 0.423101
vt 0.258774 0.199952
vt 0.258774 0.006969
vt 0.278161 0.006969
vt 0.278161 0.199952
vt 0.417605 0.246929
vt 0.392031 0.246929
vt 0.392031 0.006969
vt 0.417605 0.006969
vt 0.376648 0.006969
vt 0.376648 0.248170
vt 0.350943 0.248170
vt 0.350943 0.006969
vt 0.315323 0.006473
vt 0.334751 0.006473
vt 0.392031 0.486889
vt 0.417605 0.486889
vt 0.258774 0.392935
vt 0.278161 0.392935
vt 0.376648 0.489370
vt 0.350943 0.489370
vt 0.239387 0.199952
vt 0.239387 0.392935
vt 0.239387 0.006969
vt 0.297005 0.400033
vt 0.297005 0.423101
vt 0.295895 0.199867
vt 0.295895 0.393261
vt 0.295895 0.006473
vt 0.235593 0.400033
vt 0.235593 0.424216
vn 0.000000 0.000000 1.000000
vn 0.000000 0.000000 1.000000
vn 0.000000 0.000000 1.000000
vn 0.000000 0.000000 1.000000
vn 0.000000 1.000000 0.000000
vn 0.000000 1.000000 0.000000
vn 0.000000 1.000000 0.000000
vn 0.000000 1.000000 0.000000
vn 0.000000 0.000000 -1.000000
vn 0.000000 0.000000 -1.000000
vn 0.000000 0.000000 -1.000000
vn 0.000000 0.000000 -1.000000
vn 0.000000 -1.000000 0.000000
vn 0.000000 -1.000000 0.000000
vn 0.000000 -1.000000 0.000000
vn 0.000000 -1.000000 0.000000
vn 1.000000 0.000000 0.000000
vn 1.000000 0.000000 0.000000
vn 1.000000 0.000000 0.000000
vn 1.000000 0.000000 0.000000
vn -1.000000 0.000000 0.000000
vn -1.000000 0.000000 0.000000
vn -1.000000 0.000000 0.000000
vn -1.000000 0.000000 0.000000
vn 0.000000 0.000000 1.000000
vn 0.000000 0.000000 1.000000
vn 0.000000 0.000000 1.000000
vn 0.000000 0.000000 1.000000
vn 0.000000 1.000000 0.000000
vn 0.000000 1.000000 0.000000
vn 0.000000 1.000000 0.000000
vn 0.000000 1.000000 0.000000
vn 0.000000 0.000000 -1.000000
vn 0.000000 0.000000 -1.000000
vn 0.000000 0.000000 -1.000000
vn 0.000000 0.000000 -1.000000
vn 0.000000 -1.000000 0.000000
vn 0.000000 -1.000000 0.000000
vn 0.000000 -1.000000 0.000000
vn 0.000000 -1.000000 0.000000
vn 1.000000 0.000000 0.000000
vn 1.000000 0.000000 0.000000
vn 1.000000 0.000000 0.000000
vn 1.000000 0.000000 0.000000
vn -1.000000 0.000000 0.000000
vn -1.000000 0.000000 0.000000
vn -1.000000 0.000000 0.000000
vn -1.000000 0.000000 0.000000
vn 0.000000 0.000000 1.000000
vn 0.000000 0.000000 1.000000
vn 0.000000 1.000000 0.000000
vn 0.000000 1.000000 0.000000
vn 0.000000 0.000000 -1.000000
vn 0.000000 0.000000 -1.000000
vn 0.000000 -1.000000 0.000000
vn 0.000000 -1.000000 0.000000
vn 0.000000 0.000000 1.000000
vn 0.000000 0.000000 1.000000
vn 0.000000 1.000000 0.000000
vn 0.000000 1.000000 0.000000
vn 0.000000 0.000000 -1.000000
vn 0.000000 0.000000 -1.000000
vn 0.000000 -1.000000 0.000000
vn 0.000000 -1.000000 0.000000
vn 0.000000 0.000000 1.000000
vn 0.000000 0.000000 1.000000
vn 0.000000 0.000000 1.000000
vn 0.000000 0.000000 1.000000
vn 0.000000 1.000000 0.000000
vn 0.000000 1.000000 0.000000
vn 0.000000 1.000000 0.000000
vn 0.000000 1.000000 0.000000
vn 0.000000 0.000000 -1.000000
vn 0.000000 0.000000 -1.000000
vn 0.000000 0.000000 -1.000000
vn 0.000000 0.000000 -1.000000
vn 0.000000 -1.000000 0.000000
vn 0.000000 -1.000000 0.000000
vn 0.000000 -1.000000 0.000000
vn 0.000000 -1.000000 0.000000
vn 1.000000 0.000000 0.000000
vn 1.000000 0.000000 0.000000
vn 1.000000 0.000000 0.000000
vn 1.000000 0.000000 0.000000
vn -1.000000 0.000000 0.000000
vn -1.000000 0.000000 0.000000
vn -1.000000 0.000000 0.000000
vn -1.000000 0.000000 0.000000
vn 0.000000 1.000000 0.000000
vn 0.000000 1.000000 0.000000
vn 1.000000 0.000000 0.000000
vn 1.000000 0.000000 0.000000
vn 0.000000 -1.000000 0.000000
vn 0.000000 -1.000000 0.000000
vn -1.000000 0.000000 0.000000
vn -1.000000 0.000000 0.000000
vn 0.000000 -1.000000 0.000000
vn 0.000000 -1.000000 0.000000
vn 0.000000 -1.000000 0.000000
vn 0.000000 0.000000 -1.000000
vn 0.000000 0.000000 -1.000000
vn 0.000000 1.000000 0.000000
vn 0.000000 1.000000 0.000000
vn 0.000000 1.000000 0.000000
vn 0.000000 0.000000 1.000000
vn 0.000000 0.000000 1.000000
vn 0.000000 0.000000 1.000000
vn 0.000000 0.000000 1.000000
vn 0.000000 0.000000 1.000000
vn 0.000000 0.000000 1.000000
vn 0.000000 1.000000 0.000000
vn 0.000000 1.000000 0.000000
vn 0.000000 1.000000 0.000000
vn 0.000000 1.000000 0.000000
vn 0.000000 0.000000 -1.000000
vn 0.000000 0.000000 -1.000000
vn 0.000000 0.000000 -1.000000
vn 0.000000 0.000000 -1.000000
vn 0.000000 -1.000000 0.000000
vn 0.000000 -1.000000 0.000000
vn 0.000000 -1.000000 0.000000
vn 0.000000 -1.000000 0.000000
vn 1.000000 0.000000 0.000000
vn 1.000000 0.000000 0.000000
vn 1.000000 0.000000 0.000000
vn 1.000000 0.000000 0.000000
vn -1.000000 0.000000 0.000000
vn -1.000000 0.000000 0.000000
vn -1.000000 0.000000 0.000000
vn -1.000000 0.000000 0.000000
vn 0.000000 1.000000 0.000000
vn 0.000000 1.000000 0.000000
vn 1.000000 0.000000 0.000000
vn 1.000000 0.000000 0.000000
vn 0.000000 -1.000000 0.000000
vn 0.000000 -1.000000 0.000000
vn -1.000000 0.000000 0.000000
vn -1.000000 0.000000 0.000000
vn 0.000000 -1.000000 0.000000
vn 0.000000 -1.000000 0.000000
vn 0.000000 -1.000000 0.000000
vn 0.000000 0.000000 -1.000000
vn 0.000000 0.000000 -1.000000
vn 0.000000 1.000000 0.000000
vn 0.000000 1.000000 0.000000
vn 0.000000 1.000000 0.000000
vn 0.000000 0.000000 1.000000
vn 0.000000 0.000000 1.000000
vn 0.000000 0.000000 1.000000
vn 0.000000 0.000000 1.000000
vn 0.000000 0.000000 1.000000
vn 0.000000 0.000000 1.000000
vn 0.000000 1.000000 0.000000
vn 0.000000 1.000000 0.000000
vn 0.000000 1.000000 0.000000
vn 0.000000 1.000000 0.000000
vn 0.000000 0.000000 -1.000000
vn 0.000000 0.000000 -1.000000
vn 0.000000 0.000000 -1.000000
vn 0.000000 0.000000 -1.000000
vn 0.000000 -1.000000 0.000000
vn 0.000000 -1.000000 0.000000
vn 0.000000 -1.000000 0.000000
vn 0.000000 -1.000000 0.000000
vn 1.000000 0.000000 0.000000
vn 1.000000 0.000000 0.000000
vn 1.000000 0.000000 0.000000
vn 1.000000 0.000000 0.000000
vn -1.000000 0.000000 0.000000
vn -1.000000 0.000000 0.000000
vn -1.000000 0.000000 0.000000
vn -1.000000 0.000000 0.000000
vn 0.000000 1.000000 0.000000
vn 0.000000 1.000000 0.000000
vn 1.000000 0.000000 0.000000
vn 1.000000 0.000000 0.000000
vn 0.000000 -1.000000 0.000000
vn 0.000000 -1.000000 0.000000
vn -1.000000 0.000000 0.000000
vn -1.000000 0.000000 0.000000
vn 0.000000 -1.000000 0.000000
vn 0.000000 -1.000000 0.000000
vn 0.000000 -1.000000 0.000000
vn 0.000000 0.000000 -1.000000
vn 0.000000 0.000000 -1.000000
vn 0.000000 1.000000 0.000000
vn 0.000000 1.000000 0.000000
vn 0.000000 1.000000 0.000000
vn 0.000000 0.000000 1.000000
vn 0.000000 0.000000 1.000000
vn 0.000000 0.000000 1.000000
vn 0.000000 0.000000 1.000000
vn 0.000000 0.000000 1.000000
vn 0.000000 0.000000 1.000000
vn 0.000000 1.000000 0.000000
vn 0.000000 1.000000 0.000000
vn 0.000000 1.000000 0.000000
vn 0.000000 1.000000 0.000000
vn 0.000000 0.000000 -1.000000
vn 0.000000 0.000000 -1.000000
vn 0.000000 0.000000 -1.000000
vn 0.000000 0.000000 -1.000000
vn 0.000000 -1.000000 0.000000
vn 0.000000 -1.000000 0.000000
vn 0.000000 -1.000000 0.000000
vn 0.000000 -1.000000 0.000000
vn 1.000000 0.000000 0.000000
vn 1.000000 0.000000 0.000000
vn 1.000000 0.000000 0.000000
vn 1.000000 0.000000 0.000000
vn -1.000000 0.000000 0.000000
vn -1.000000 0.000000 0.000000
vn -1.000000 0.000000 0.000000
vn -1.000000 0.000000 0.000000
vn 0.000000 1.000000 0.000000
vn 0.000000 1.000000 0.000000
vn 1.000000 0.000000 0.000000
vn 1.000000 0.000000 0.000000
vn 0.000000 -1.000000 0.000000
vn 0.000000 -1.000000 0.000000
vn -1.000000 0.000000 0.000000
vn -1.000000 0.000000 0.000000
vn 0.000000 -1.000000 0.000000
vn 0.000000 -1.000000 0.000000
vn 0.000000 -1.000000 0.000000
vn 0.000000 0.000000 -1.000000
vn 0.000000 0.000000 -1.000000
vn 0.000000 1.000000 0.000000
vn 0.000000 1.000000 0.000000
vn 0.000000 1.000000 0.000000
vn 0.000000 0.000000 1.000000
vn 0.000000 0.000000 1.000000
vn 0.000000 0.000000 1.000000
vn 0.000000 0.000000 1.000000
vn 0.000000 0.000000 1.000000
vn 0.000000 0.000000 1.000000
vn 0.000000 1.000000 0.000000
vn 0.000000 1.000000 0.000000
vn 0.000000 1.000000 0.000000
vn 0.000000 1.000000 0.000000
vn 0.000000 0.000000 -1.000000
vn 0.000000 0.000000 -1.000000
vn 0.000000 0.000000 -1.000000
vn 0.000000 0.000000 -1.000000
vn 0.000000 -1.000000 0.000000
vn 0.000000 -1.000000 0.000000
vn 0.000000 -1.000000 0.000000
vn 0.000000 -1.000000 0.000000
vn 1.000000 0.000000 0.000000
vn 1.000000 0.000000 0.000000
vn 1.000000 0.000000 0.000000
vn 1.000000 0.000000 0.000000
vn -1.000000 0.000000 0.000000
vn -1.000000 0.000000 0.000000
vn -1.000000 0.000000 0.000000
vn -1.000000 0.000000 0.000000
vn 0.000000 1.000000 0.000000
vn 0.000000 1.000000 0.000000
vn 1.000000 0.000000 0.000000
vn 1.000000 0.000000 0.000000
vn 0.000000 -1.000000 0.000000
vn 0.000000 -1.000000 0.000000
vn -1.000000 0.000000 0.000000
vn -1.000000 0.000000 0.000000
vn 0.000000 -1.000000 0.000000
vn 0.000000 -1.000000 0.000000
vn 0.000000 -1.000000 0.000000
vn 0.000000 0.000000 -1.000000
vn 0.000000 0.000000 -1.000000
vn 0.000000 1.000000 0.000000
vn 0.000000 1.000000 0.000000
vn 0.000000 1.000000 0.000000
vn 0.000000 0.000000 1.000000
vn 0.000000 0.000000 1.000000
s 1
g pCube173_polySurface159
usemtl lambert3SG
f 12/3/1 9/4/2 25/10/3 26/11/4
s 2
f 11/5/5 12/12/6 26/13/7 27/16/8
s 3
f 10/14/9 11/15/10 27/26/11 28/28/12
s 4
f 9/17/13 10/27/14 28/32/15 25/33/16
s off
f 2/1/17 8/2/18 6/6/19 4/7/20
f 7/8/21 1/9/22 3/18/23 5/19/24
s 5
f 24/29/25 21/30/26 29/31/27 30/34/28
s 6
f 23/36/29 24/37/30 30/39/31 31/40/32
s 7
f 22/35/33 23/38/34 31/53/35 32/54/36
s 8
f 21/41/37 22/42/38 32/43/39 29/44/40
s off
f 14/20/41 20/21/42 18/22/43 16/23/44
f 19/24/45 13/25/46 15/63/47 17/64/48
s 1
f 26/11/4 25/10/3 2/55/49 4/56/50
s 2
f 27/16/8 26/13/7 4/45/51 6/46/52
s 3
f 28/28/12 27/26/11 6/57/53 8/58/54
s 4
f 25/33/16 28/32/15 8/47/55 2/48/56
s 5
f 30/34/28 29/31/27 14/59/57 16/60/58
s 6
f 31/40/32 30/39/31 16/49/59 18/50/60
s 7
f 32/54/36 31/53/35 18/61/61 20/62/62
s 8
f 29/44/40 32/43/39 20/51/63 14/52/64
s 9
f 50/65/65 45/66/66 34/67/67 36/68/68
s 10
f 48/69/69 49/70/70 42/71/71 38/72/72
s 11
f 47/73/73 48/74/74 38/75/75 40/76/76
s 12
f 46/77/77 47/78/78 40/79/79 43/80/80
s 13
f 42/81/81 43/82/82 40/83/83 38/84/84
s 14
f 39/85/85 44/86/86 41/87/87 37/88/88
s 10
f 49/70/70 50/89/89 36/90/90 42/71/71
s 13
f 34/91/91 43/82/82 42/81/81 36/92/92
s 12
f 45/93/93 46/77/77 43/80/80 34/94/94
s 14
f 41/87/87 44/86/86 33/95/95 35/96/96
s 12
f 44/97/97 46/77/77 45/93/93 33/98/98
f 39/99/99 47/78/78 46/77/77 44/97/97
s 11
f 37/100/100 48/74/74 47/73/73 39/101/101
s 10
f 41/102/102 49/70/70 48/69/69 37/103/103
f 35/104/104 50/89/89 49/70/70 41/102/102
s 9
f 33/105/105 45/66/66 50/65/65 35/106/106
s 15
f 68/107/107 63/108/108 52/109/109 54/110/110
s 16
f 66/111/111 67/112/112 60/113/113 56/114/114
s 17
f 65/115/115 66/116/116 56/117/117 58/118/118
s 18
f 64/119/119 65/120/120 58/121/121 61/122/122
s 19
f 60/123/123 61/124/124 58/125/125 56/126/126
s 20
f 57/127/127 62/128/128 59/129/129 55/130/130
s 16
f 67/112/112 68/131/131 54/132/132 60/113/113
s 19
f 52/133/133 61/124/124 60/123/123 54/134/134
s 18
f 63/135/135 64/119/119 61/122/122 52/136/136
s 20
f 59/129/129 62/128/128 51/137/137 53/138/138
s 18
f 62/139/139 64/119/119 63/135/135 51/140/140
f 57/141/141 65/120/120 64/119/119 62/139/139
s 17
f 55/142/142 66/116/116 65/115/115 57/143/143
s 16
f 59/144/144 67/112/112 66/111/111 55/145/145
f 53/146/146 68/131/131 67/112/112 59/144/144
s 15
f 51/147/147 63/108/108 68/107/107 53/148/148
s 21
f 86/149/149 81/150/150 70/151/151 72/152/152
s 22
f 84/153/153 85/154/154 78/155/155 74/156/156
s 23
f 83/157/157 84/158/158 74/159/159 76/160/160
s 24
f 82/161/161 83/162/162 76/163/163 79/164/164
s 25
f 78/165/165 79/166/166 76/167/167 74/168/168
s 26
f 75/169/169 80/170/170 77/171/171 73/172/172
s 22
f 85/154/154 86/173/173 72/174/174 78/155/155
s 25
f 70/175/175 79/166/166 78/165/165 72/176/176
s 24
f 81/177/177 82/161/161 79/164/164 70/178/178
s 26
f 77/171/171 80/170/170 69/179/179 71/180/180
s 24
f 80/181/181 82/161/161 81/177/177 69/182/182
f 75/183/183 83/162/162 82/161/161 80/181/181
s 23
f 73/184/184 84/158/158 83/157/157 75/185/185
s 22
f 77/186/186 85/154/154 84/153/153 73/187/187
f 71/188/188 86/173/173 85/154/154 77/186/186
s 21
f 69/189/189 81/150/150 86/149/149 71/190/190
s 27
f 104/191/191 99/192/192 88/193/193 90/194/194
s 28
f 102/195/195 103/196/196 96/197/197 92/198/198
s 29
f 101/199/199 102/200/200 92/201/201 94/202/202
s 30
f 100/203/203 101/204/204 94/205/205 97/206/206
s 31
f 96/207/207 97/208/208 94/209/209 92/210/210
s 32
f 93/211/211 98/212/212 95/213/213 91/214/214
s 28
f 103/196/196 104/215/215 90/216/216 96/197/197
s 31
f 88/217/217 97/208/208 96/207/207 90/218/218
s 30
f 99/219/219 100/203/203 97/206/206 88/220/220
s 32
f 95/213/213 98/212/212 87/221/221 89/222/222
s 30
f 98/223/223 100/203/203 99/219/219 87/224/224
f 93/225/225 101/204/204 100/203/203 98/223/223
s 29
f 91/226/226 102/200/200 101/199/199 93/227/227
s 28
f 95/228/228 103/196/196 102/195/195 91/229/229
f 89/230/230 104/215/215 103/196/196 95/228/228
s 27
f 87/231/231 99/192/192 104/191/191 89/232/232
s 33
f 122/233/233 117/234/234 106/235/235 108/236/236
s 34
f 120/237/237 121/238/238 114/239/239 110/240/240
s 35
f 119/241/241 120/242/242 110/243/243 112/244/244
s 36
f 118/245/245 119/246/246 112/247/247 115/248/248
s 37
f 114/249/249 115/250/250 112/251/251 110/252/252
s 38
f 111/253/253 116/254/254 113/255/255 109/256/256
s 34
f 121/238/238 122/257/257 108/258/258 114/239/239
s 37
f 106/259/259 115/250/250 114/249/249 108/260/260
s 36
f 117/261/261 118/245/245 115/248/248 106/262/262
s 38
f 113/255/255 116/254/254 105/263/263 107/264/264
s 36
f 116/265/265 118/245/245 117/261/261 105/266/266
f 111/267/267 119/246/246 118/245/245 116/265/265
s 35
f 109/268/268 120/242/242 119/241/241 111/269/269
s 34
f 113/270/270 121/238/238 120/237/237 109/271/271
f 107/272/272 122/257/257 121/238/238 113/270/270
s 33
f 105/273/273 117/234/234 122/233/233 107/274/274
