# This file uses centimeters as units for non-parametric coordinates.

mtllib Street_sign_01.mtl
g default
v 0.257187 11.034375 1.904133
v 0.406417 11.034375 1.904133
v 0.257187 12.034375 1.904133
v 0.406417 12.034375 1.904133
v 0.257187 12.034375 -1.521958
v 0.406417 12.034375 -1.521958
v 0.257187 11.034375 -1.521958
v 0.406417 11.034375 -1.521958
v 0.257187 11.534375 1.478356
v 0.406417 11.534375 1.478356
v 0.406417 11.534375 -1.901697
v 0.257187 11.534375 -1.901697
v 0.406417 12.034375 -0.010290
v 0.406417 11.534375 -0.010294
v 0.406417 11.034375 -0.010290
v 0.257187 11.034375 -0.010290
v 0.257187 11.534375 -0.010294
v 0.257187 12.034375 -0.010290
v -0.250000 8.040321 -1.901697
v -0.399230 8.040321 -1.901697
v -0.250000 9.040321 -1.901697
v -0.399230 9.040321 -1.901697
v -0.250000 9.040321 1.524394
v -0.399230 9.040321 1.524394
v -0.250000 8.040321 1.524394
v -0.399230 8.040321 1.524394
v -0.250000 8.540321 -1.475920
v -0.399230 8.540321 -1.475920
v -0.399230 8.540321 1.904133
v -0.250000 8.540321 1.904133
v -0.399230 9.040321 0.012725
v -0.399230 8.540321 0.012729
v -0.399230 8.040321 0.012725
v -0.250000 8.040321 0.012725
v -0.250000 8.540321 0.012729
v -0.250000 9.040321 0.012725
v 2.160102 9.593107 -0.248782
v 2.160102 9.593107 -0.398012
v 2.160102 10.593107 -0.248782
v 2.160102 10.593107 -0.398012
v -1.265989 10.593107 -0.248782
v -1.265989 10.593107 -0.398012
v -1.265989 9.593107 -0.248782
v -1.265989 9.593107 -0.398012
v 1.734325 10.093107 -0.248782
v 1.734325 10.093107 -0.398012
v -1.645728 10.093107 -0.398012
v -1.645728 10.093107 -0.248782
v 0.245679 10.593107 -0.398012
v 0.245675 10.093107 -0.398012
v 0.245679 9.593107 -0.398012
v 0.245679 9.593107 -0.248782
v 0.245675 10.093107 -0.248782
v 0.245679 10.593107 -0.248782
v -0.250000 -0.000000 0.251218
v 0.250000 -0.000000 0.251218
v -0.250000 12.422286 0.251218
v 0.250000 12.422286 0.251218
v -0.250000 12.422286 -0.248782
v 0.250000 12.422286 -0.248782
v -0.250000 -0.000000 -0.248782
v 0.250000 -0.000000 -0.248782
v -0.250000 7.763928 0.251218
v 0.250000 7.763928 0.251218
v 0.250000 7.763928 -0.248782
v -0.250000 7.763928 -0.248782
v -0.250000 12.422286 0.001218
v 0.250000 12.422286 0.001218
v 0.250000 7.763928 0.001218
v 0.250000 -0.000000 0.001218
v -0.250000 -0.000000 0.001218
v -0.250000 7.763928 0.001218
v 0.000000 -0.000000 0.251218
v 0.000000 -0.000000 0.001218
v 0.000000 -0.000000 -0.248782
v 0.000000 7.763928 -0.248782
v 0.000000 12.422286 -0.248782
v 0.000000 12.422286 0.001218
v 0.000000 12.422286 0.251218
v 0.000000 7.763928 0.251218
v -0.250000 11.645893 -0.248782
v 0.000000 11.645893 -0.248782
v 0.250000 11.645893 -0.248782
v 0.250000 11.645893 0.001218
v 0.250000 11.645893 0.251218
v 0.000000 11.645893 0.251218
v -0.250000 11.645893 0.251218
v -0.250000 11.645893 0.001218
v 0.250000 10.093107 0.251218
v 0.250000 10.093107 0.001218
v 0.250000 10.093107 -0.248782
v 0.000000 10.093107 -0.248782
v -0.250000 10.093107 -0.248782
v -0.250000 10.093107 0.001218
v -0.250000 10.093107 0.251218
v 0.000000 10.093107 0.251218
v -0.250000 8.540321 -0.248782
v 0.000000 8.540321 -0.248782
v 0.250000 8.540321 -0.248782
v 0.250000 8.540321 0.001218
v 0.250000 8.540321 0.251218
v 0.000000 8.540321 0.251218
v -0.250000 8.540321 0.251218
v -0.250000 8.540321 0.001218
vt 0.612779 0.306595
vt 0.612779 0.326555
vt 0.572852 0.496673
vt 0.585210 0.496673
vt 0.585210 0.621863
vt 0.572852 0.621863
vt 0.639205 0.621863
vt 0.639205 0.496673
vt 0.651563 0.496673
vt 0.651563 0.621863
vt 0.610993 0.219831
vt 0.610993 0.186149
vt 0.738411 0.186149
vt 0.712828 0.219831
vt 0.524940 0.326555
vt 0.524940 0.306595
vt 0.526242 0.266286
vt 0.610996 0.084447
vt 0.610996 0.050760
vt 0.526242 0.245872
vt 0.639205 0.338130
vt 0.712836 0.050760
vt 0.738414 0.084447
vt 0.651563 0.338130
vt 0.610993 0.152465
vt 0.712830 0.152465
vt 0.585210 0.338130
vt 0.610996 0.118127
vt 0.712828 0.118127
vt 0.572852 0.338130
vt 0.482025 0.219831
vt 0.510709 0.186149
vt 0.482026 0.152465
vt 0.482025 0.118127
vt 0.510712 0.084447
vt 0.482032 0.050760
vt 0.612128 0.245872
vt 0.612128 0.266286
vt 0.700618 0.306595
vt 0.700618 0.326555
vt 0.698014 0.245872
vt 0.698014 0.266286
vt 0.363219 0.306595
vt 0.363219 0.326555
vt 0.275380 0.326555
vt 0.275380 0.306595
vt 0.392490 0.498820
vt 0.404848 0.498820
vt 0.404848 0.624009
vt 0.392490 0.624009
vt 0.274930 0.266286
vt 0.274930 0.245872
vt 0.360817 0.245872
vt 0.360817 0.266286
vt 0.320634 0.625561
vt 0.320634 0.500372
vt 0.332992 0.500372
vt 0.332992 0.625561
vt 0.363596 0.219831
vt 0.363596 0.186149
vt 0.491013 0.186149
vt 0.465431 0.219831
vt 0.353686 0.084447
vt 0.353686 0.050760
vt 0.455525 0.050760
vt 0.481103 0.084447
vt 0.451057 0.306595
vt 0.451057 0.326555
vt 0.363596 0.152465
vt 0.465432 0.152465
vt 0.446703 0.245872
vt 0.446703 0.266286
vt 0.353686 0.118127
vt 0.455518 0.118127
vt 0.234628 0.219831
vt 0.263311 0.186149
vt 0.234629 0.152465
vt 0.320634 0.341828
vt 0.332992 0.341828
vt 0.224714 0.118127
vt 0.253401 0.084447
vt 0.224722 0.050760
vt 0.404848 0.340277
vt 0.392490 0.340277
vt 0.807448 0.310069
vt 0.807448 0.330029
vt 0.719610 0.330029
vt 0.719610 0.310069
vt 0.844536 0.500703
vt 0.856894 0.500703
vt 0.856894 0.625892
vt 0.844536 0.625892
vt 0.718869 0.266286
vt 0.718869 0.245872
vt 0.804756 0.245872
vt 0.804756 0.266286
vt 0.770202 0.627032
vt 0.770202 0.501842
vt 0.782561 0.501842
vt 0.782561 0.627032
vt 0.867457 0.219831
vt 0.867457 0.186149
vt 0.994874 0.186149
vt 0.969292 0.219831
vt 0.868307 0.084447
vt 0.868307 0.050760
vt 0.970146 0.050760
vt 0.995724 0.084447
vt 0.895287 0.310069
vt 0.895287 0.330029
vt 0.867457 0.152465
vt 0.969293 0.152465
vt 0.890642 0.245872
vt 0.890642 0.266286
vt 0.868307 0.118127
vt 0.970139 0.118127
vt 0.738489 0.219831
vt 0.767172 0.186149
vt 0.738490 0.152465
vt 0.770202 0.343299
vt 0.782561 0.343299
vt 0.739335 0.118127
vt 0.768022 0.084447
vt 0.739343 0.050760
vt 0.856894 0.342160
vt 0.844536 0.342160
vt 0.161565 0.687500
vt 0.141440 0.687500
vt 0.141440 0.625000
vt 0.161565 0.625000
vt 0.944900 0.296979
vt 0.944900 0.274564
vt 0.967315 0.274564
vt 0.967315 0.296979
vt 0.195379 0.625000
vt 0.195379 0.687500
vt 0.175254 0.687500
vt 0.175254 0.625000
vt 0.938928 0.371606
vt 0.938928 0.394021
vt 0.916514 0.394021
vt 0.916514 0.371606
vt 0.104640 0.687500
vt 0.084515 0.687500
vt 0.084515 0.625000
vt 0.104640 0.625000
vt 0.008958 0.625000
vt 0.029083 0.625000
vt 0.029083 0.687500
vt 0.008958 0.687500
vt 0.175254 0.812500
vt 0.195379 0.812500
vt 0.195379 0.937500
vt 0.175254 0.937500
vt 0.084515 0.812500
vt 0.104640 0.812500
vt 0.104640 0.937500
vt 0.084515 0.937500
vt 0.141440 0.812500
vt 0.161565 0.812500
vt 0.161565 0.937500
vt 0.141440 0.937500
vt 0.008958 0.812500
vt 0.029083 0.812500
vt 0.029083 0.937500
vt 0.008958 0.937500
vt 0.141440 0.000000
vt 0.161565 0.000000
vt 0.084515 0.000000
vt 0.104640 0.000000
vt 0.175254 0.000000
vt 0.195379 0.000000
vt 0.008958 0.000000
vt 0.029083 0.000000
vt 0.944900 0.252149
vt 0.967315 0.252149
vt 0.064390 0.937500
vt 0.064390 0.812500
vt 0.064390 0.625000
vt 0.064390 0.687500
vt 0.064390 0.000000
vt 0.938928 0.349191
vt 0.916514 0.349191
vt 0.049208 0.000000
vt 0.049208 0.625000
vt 0.049208 0.687500
vt 0.049208 0.812500
vt 0.049208 0.937500
vt 0.961343 0.371606
vt 0.961343 0.349191
vt 0.961343 0.394021
vt 0.215504 0.625000
vt 0.215504 0.000000
vt 0.215504 0.687500
vt 0.215504 0.812500
vt 0.215504 0.937500
vt 0.922486 0.274564
vt 0.922486 0.296979
vt 0.922486 0.252149
vt 0.121315 0.937500
vt 0.121315 0.812500
vt 0.121315 0.625000
vt 0.121315 0.687500
vt 0.121315 0.000000
vt 0.215504 1.000000
vt 0.195379 1.000000
vt 0.175254 1.000000
vt 0.084515 1.000000
vt 0.104640 1.000000
vt 0.064390 1.000000
vt 0.141440 1.000000
vt 0.161565 1.000000
vt 0.121315 1.000000
vt 0.029083 1.000000
vt 0.049208 1.000000
vt 0.008958 1.000000
vn 0.000000 0.000000 1.000000
vn 0.000000 0.000000 1.000000
vn 0.000000 -0.648335 0.761356
vn 0.000000 -0.648335 0.761356
vn 0.000000 1.000000 0.000000
vn 0.000000 1.000000 0.000000
vn 0.000000 1.000000 0.000000
vn 0.000000 1.000000 0.000000
vn 0.000000 0.604819 -0.796363
vn 0.000000 0.604819 -0.796363
vn 0.000000 0.000000 -1.000000
vn 0.000000 0.000000 -1.000000
vn 0.000000 -1.000000 0.000000
vn 0.000000 -1.000000 0.000000
vn 0.000000 -1.000000 0.000000
vn 0.000000 -1.000000 0.000000
vn 1.000000 -0.000000 0.000000
vn 1.000000 0.000000 0.000000
vn 1.000000 0.000000 0.000000
vn 1.000000 0.000000 0.000000
vn -1.000000 -0.000000 0.000000
vn -1.000000 0.000000 0.000000
vn -1.000000 0.000000 0.000000
vn -1.000000 -0.000000 0.000000
vn 0.000000 0.648335 0.761356
vn 0.000000 0.648335 0.761356
vn 1.000000 0.000000 0.000000
vn 1.000000 0.000000 0.000000
vn 0.000000 -0.604819 -0.796363
vn 0.000000 -0.604819 -0.796363
vn -1.000000 -0.000000 0.000000
vn -1.000000 -0.000000 0.000000
vn 1.000000 -0.000000 0.000000
vn 1.000000 0.000000 0.000000
vn 1.000000 0.000000 0.000000
vn 0.000000 -1.000000 0.000000
vn 0.000000 -1.000000 0.000000
vn -1.000000 0.000000 0.000000
vn -1.000000 0.000000 0.000000
vn -1.000000 0.000000 0.000000
vn 0.000000 1.000000 0.000000
vn 0.000000 1.000000 0.000000
vn 0.000000 -0.000000 -1.000000
vn 0.000000 -0.000000 -1.000000
vn 0.000000 -0.648335 -0.761356
vn 0.000000 -0.648335 -0.761356
vn 0.000000 1.000000 0.000000
vn 0.000000 1.000000 0.000000
vn 0.000000 1.000000 0.000000
vn 0.000000 1.000000 0.000000
vn 0.000000 0.604819 0.796363
vn 0.000000 0.604819 0.796363
vn 0.000000 0.000000 1.000000
vn 0.000000 0.000000 1.000000
vn 0.000000 -1.000000 0.000000
vn 0.000000 -1.000000 0.000000
vn 0.000000 -1.000000 0.000000
vn 0.000000 -1.000000 0.000000
vn -1.000000 0.000000 0.000000
vn -1.000000 0.000000 0.000000
vn -1.000000 0.000000 0.000000
vn -1.000000 0.000000 0.000000
vn 1.000000 0.000000 0.000000
vn 1.000000 0.000000 0.000000
vn 1.000000 0.000000 0.000000
vn 1.000000 0.000000 0.000000
vn 0.000000 0.648335 -0.761355
vn 0.000000 0.648335 -0.761355
vn -1.000000 -0.000000 0.000000
vn -1.000000 -0.000000 0.000000
vn 0.000000 -0.604820 0.796362
vn 0.000000 -0.604820 0.796362
vn 1.000000 0.000000 0.000000
vn 1.000000 0.000000 0.000000
vn -1.000000 0.000000 0.000000
vn -1.000000 0.000000 0.000000
vn -1.000000 0.000000 0.000000
vn 0.000000 -1.000000 0.000000
vn 0.000000 -1.000000 0.000000
vn 1.000000 0.000000 0.000000
vn 1.000000 0.000000 0.000000
vn 1.000000 0.000000 0.000000
vn 0.000000 1.000000 0.000000
vn 0.000000 1.000000 0.000000
vn 1.000000 0.000000 0.000000
vn 1.000000 0.000000 0.000000
vn 0.761355 -0.648335 0.000000
vn 0.761355 -0.648335 0.000000
vn 0.000000 1.000000 0.000000
vn 0.000000 1.000000 0.000000
vn 0.000000 1.000000 0.000000
vn 0.000000 1.000000 0.000000
vn -0.796363 0.604820 0.000000
vn -0.796363 0.604820 0.000000
vn -1.000000 0.000000 0.000000
vn -1.000000 0.000000 0.000000
vn 0.000000 -1.000000 0.000000
vn 0.000000 -1.000000 0.000000
vn 0.000000 -1.000000 0.000000
vn 0.000000 -1.000000 0.000000
vn 0.000000 0.000000 -1.000000
vn 0.000000 0.000000 -1.000000
vn 0.000000 0.000000 -1.000000
vn 0.000000 0.000000 -1.000000
vn 0.000000 0.000000 1.000000
vn 0.000000 0.000000 1.000000
vn 0.000000 0.000000 1.000000
vn 0.000000 0.000000 1.000000
vn 0.761355 0.648335 0.000000
vn 0.761355 0.648335 0.000000
vn 0.000000 0.000000 -1.000000
vn 0.000000 0.000000 -1.000000
vn -0.796363 -0.604820 0.000000
vn -0.796363 -0.604820 0.000000
vn 0.000000 0.000000 1.000000
vn 0.000000 0.000000 1.000000
vn 0.000000 0.000000 -1.000000
vn 0.000000 0.000000 -1.000000
vn 0.000000 0.000000 -1.000000
vn 0.000000 -1.000000 0.000000
vn 0.000000 -1.000000 0.000000
vn 0.000000 0.000000 1.000000
vn 0.000000 0.000000 1.000000
vn 0.000000 0.000000 1.000000
vn 0.000000 1.000000 0.000000
vn 0.000000 1.000000 0.000000
vn 0.000000 0.000000 1.000000
vn 0.000000 0.000000 1.000000
vn 0.000000 0.000000 1.000000
vn 0.000000 0.000000 1.000000
vn 0.000000 1.000000 0.000000
vn 0.000000 1.000000 0.000000
vn 0.000000 1.000000 0.000000
vn 0.000000 1.000000 0.000000
vn 0.000000 0.000000 -1.000000
vn 0.000000 0.000000 -1.000000
vn 0.000000 0.000000 -1.000000
vn 0.000000 0.000000 -1.000000
vn 0.000000 -1.000000 0.000000
vn 0.000000 -1.000000 0.000000
vn 0.000000 -1.000000 0.000000
vn 0.000000 -1.000000 0.000000
vn 1.000000 0.000000 0.000000
vn 1.000000 0.000000 0.000000
vn 1.000000 0.000000 0.000000
vn 1.000000 0.000000 0.000000
vn -1.000000 0.000000 0.000000
vn -1.000000 0.000000 0.000000
vn -1.000000 0.000000 0.000000
vn -1.000000 0.000000 0.000000
vn 0.000000 0.000000 -1.000000
vn 0.000000 0.000000 -1.000000
vn 0.000000 0.000000 -1.000000
vn 0.000000 0.000000 -1.000000
vn 1.000000 0.000000 0.000000
vn 1.000000 0.000000 0.000000
vn 1.000000 0.000000 0.000000
vn 1.000000 0.000000 0.000000
vn 0.000000 0.000000 1.000000
vn 0.000000 0.000000 1.000000
vn 0.000000 0.000000 1.000000
vn 0.000000 0.000000 1.000000
vn -1.000000 0.000000 0.000000
vn -1.000000 0.000000 0.000000
vn -1.000000 0.000000 0.000000
vn -1.000000 0.000000 0.000000
vn 0.000000 0.000000 1.000000
vn 0.000000 0.000000 1.000000
vn 1.000000 0.000000 0.000000
vn 1.000000 0.000000 0.000000
vn 0.000000 0.000000 -1.000000
vn 0.000000 0.000000 -1.000000
vn -1.000000 0.000000 0.000000
vn -1.000000 0.000000 0.000000
vn 0.000000 1.000000 0.000000
vn 0.000000 1.000000 0.000000
vn 1.000000 0.000000 0.000000
vn 1.000000 0.000000 0.000000
vn 1.000000 0.000000 0.000000
vn 1.000000 0.000000 0.000000
vn 1.000000 0.000000 0.000000
vn 0.000000 -1.000000 0.000000
vn 0.000000 -1.000000 0.000000
vn -1.000000 0.000000 0.000000
vn -1.000000 0.000000 0.000000
vn -1.000000 0.000000 0.000000
vn -1.000000 0.000000 0.000000
vn -1.000000 0.000000 0.000000
vn 0.000000 -1.000000 0.000000
vn 0.000000 -1.000000 0.000000
vn 0.000000 -1.000000 0.000000
vn 0.000000 0.000000 -1.000000
vn 0.000000 0.000000 -1.000000
vn 0.000000 0.000000 -1.000000
vn 0.000000 0.000000 -1.000000
vn 0.000000 0.000000 -1.000000
vn 0.000000 1.000000 0.000000
vn 0.000000 1.000000 0.000000
vn 0.000000 1.000000 0.000000
vn 0.000000 0.000000 1.000000
vn 0.000000 0.000000 1.000000
vn 0.000000 0.000000 1.000000
vn 0.000000 0.000000 1.000000
vn 0.000000 0.000000 1.000000
vn 0.000000 0.000000 -1.000000
vn 0.000000 0.000000 -1.000000
vn 0.000000 0.000000 -1.000000
vn 1.000000 0.000000 0.000000
vn 1.000000 0.000000 0.000000
vn 1.000000 0.000000 0.000000
vn 0.000000 0.000000 1.000000
vn 0.000000 0.000000 1.000000
vn 0.000000 0.000000 1.000000
vn -1.000000 0.000000 0.000000
vn -1.000000 0.000000 0.000000
vn -1.000000 0.000000 0.000000
s 1
g Street_Sign_04
usemtl lambert8SG
f 9/1/1 10/2/2 4/15/3 3/16/4
s 2
f 18/3/5 13/4/6 6/5/7 5/6/8
s 3
f 5/17/9 6/20/10 11/37/11 12/38/12
s 4
f 8/7/13 15/8/14 16/9/15 7/10/16
s 5
f 13/11/17 14/12/18 11/13/19 6/14/20
s 6
f 17/18/21 18/19/22 5/22/23 12/23/24
s 1
f 1/39/25 2/40/26 10/2/2 9/1/1
s 5
f 14/12/18 15/25/27 8/26/28 11/13/19
s 3
f 12/38/12 11/37/11 8/41/29 7/42/30
s 6
f 16/28/31 17/18/21 12/23/24 7/29/32
s 5
f 14/12/18 13/11/17 4/31/33 10/32/34
f 15/25/27 14/12/18 10/32/34 2/33/35
s 4
f 16/9/15 15/8/14 2/21/36 1/24/37
s 6
f 17/18/21 16/28/31 1/34/38 9/35/39
f 18/19/22 17/18/21 9/35/39 3/36/40
s 2
f 4/27/41 13/4/6 18/3/5 3/30/42
s 7
f 27/43/43 28/44/44 22/45/45 21/46/46
s 8
f 36/47/47 31/48/48 24/49/49 23/50/50
s 9
f 23/51/51 24/52/52 29/53/53 30/54/54
s 10
f 26/55/55 33/56/56 34/57/57 25/58/58
s 11
f 31/59/59 32/60/60 29/61/61 24/62/62
s 12
f 35/63/63 36/64/64 23/65/65 30/66/66
s 7
f 19/67/67 20/68/68 28/44/44 27/43/43
s 11
f 32/60/60 33/69/69 26/70/70 29/61/61
s 9
f 30/54/54 29/53/53 26/71/71 25/72/72
s 12
f 34/73/73 35/63/63 30/66/66 25/74/74
s 11
f 32/60/60 31/59/59 22/75/75 28/76/76
f 33/69/69 32/60/60 28/76/76 20/77/77
s 10
f 34/57/57 33/56/56 20/78/78 19/79/79
s 12
f 35/63/63 34/73/73 19/80/80 27/81/81
f 36/64/64 35/63/63 27/81/81 21/82/82
s 8
f 22/83/83 31/48/48 36/47/47 21/84/84
s 13
f 45/85/85 46/86/86 40/87/87 39/88/88
s 14
f 54/89/89 49/90/90 42/91/91 41/92/92
s 15
f 41/93/93 42/94/94 47/95/95 48/96/96
s 16
f 44/97/97 51/98/98 52/99/99 43/100/100
s 17
f 49/101/101 50/102/102 47/103/103 42/104/104
s 18
f 53/105/105 54/106/106 41/107/107 48/108/108
s 13
f 37/109/109 38/110/110 46/86/86 45/85/85
s 17
f 50/102/102 51/111/111 44/112/112 47/103/103
s 15
f 48/96/96 47/95/95 44/113/113 43/114/114
s 18
f 52/115/115 53/105/105 48/108/108 43/116/116
s 17
f 50/102/102 49/101/101 40/117/117 46/118/118
f 51/111/111 50/102/102 46/118/118 38/119/119
s 16
f 52/99/99 51/98/98 38/120/120 37/121/121
s 18
f 53/105/105 52/115/115 37/122/122 45/123/123
f 54/106/106 53/105/105 45/123/123 39/124/124
s 14
f 40/125/125 49/90/90 54/89/89 39/126/126
s 19
f 101/127/127 102/128/128 80/129/129 64/130/130
s 20
f 77/131/131 78/132/132 68/133/133 60/134/134
s 21
f 76/135/135 98/136/136 99/137/137 65/138/138
s 22
f 74/139/139 75/140/140 62/141/141 70/142/142
s 23
f 99/143/143 100/144/144 69/145/145 65/146/146
s 24
f 66/147/147 72/148/148 104/149/149 97/150/150
s 21
f 91/151/151 92/152/152 82/153/153 83/154/154
s 23
f 90/155/155 91/156/156 83/157/157 84/158/158
s 19
f 96/159/159 89/160/160 85/161/161 86/162/162
s 24
f 93/163/163 94/164/164 88/165/165 81/166/166
s 19
f 64/130/130 80/129/129 73/167/167 56/168/168
s 23
f 65/146/146 69/145/145 70/169/169 62/170/170
s 21
f 76/135/135 65/138/138 62/171/171 75/172/172
s 24
f 72/148/148 66/147/147 61/173/173 71/174/174
s 20
f 78/132/132 79/175/175 58/176/176 68/133/133
s 23
f 85/177/177 89/178/178 90/155/155 84/158/158
f 64/179/179 69/145/145 100/144/144 101/180/180
f 69/145/145 64/179/179 56/181/181 70/169/169
s 22
f 73/182/182 74/139/139 70/142/142 56/183/183
s 24
f 55/184/184 63/185/185 72/148/148 71/174/174
f 103/186/186 104/149/149 72/148/148 63/185/185
f 88/165/165 94/164/164 95/187/187 87/188/188
s 22
f 71/189/189 74/139/139 73/182/182 55/190/190
f 61/191/191 75/140/140 74/139/139 71/189/189
s 21
f 66/192/192 76/135/135 75/172/172 61/193/193
f 97/194/194 98/136/136 76/135/135 66/192/192
f 82/153/153 92/152/152 93/195/195 81/196/196
s 20
f 67/197/197 78/132/132 77/131/131 59/198/198
f 57/199/199 79/175/175 78/132/132 67/197/197
s 19
f 87/200/200 95/201/201 96/159/159 86/162/162
f 63/202/202 80/129/129 102/128/128 103/203/203
f 80/129/129 63/202/202 55/204/204 73/167/167
s 21
f 59/205/205 77/206/206 82/153/153 81/196/196
f 83/154/154 82/153/153 77/206/206 60/207/207
s 23
f 68/208/208 84/158/158 83/157/157 60/209/209
f 85/177/177 84/158/158 68/208/208 58/210/210
s 19
f 79/211/211 86/162/162 85/161/161 58/212/212
f 87/200/200 86/162/162 79/211/211 57/213/213
s 24
f 67/214/214 88/165/165 87/188/188 57/215/215
f 81/166/166 88/165/165 67/214/214 59/216/216
s 21
f 92/152/152 98/136/136 97/194/194 93/195/195
f 99/137/137 98/136/136 92/152/152 91/151/151
s 23
f 100/144/144 99/143/143 91/156/156 90/155/155
f 89/178/178 101/180/180 100/144/144 90/155/155
s 19
f 102/128/128 101/127/127 89/160/160 96/159/159
f 95/201/201 103/203/203 102/128/128 96/159/159
s 24
f 94/164/164 104/149/149 103/186/186 95/187/187
f 97/150/150 104/149/149 94/164/164 93/163/163
